#!OML:ASF F:\VICON\USERDATA\INSTALL\rory3\rory3.ASF
:FULLY-SPECIFIED
:DEGREES
1219
root -0.867983 16.7604 -1.53083 2.42505 52.8494 -717.575
lowerback 20.1803 -2.16433 -0.107825
upperback 10.3856 -2.26786 3.79545
thorax 0.134017 -1.05748 4.54654
lowerneck -15.1742 1.73872 -8.79012
upperneck 36.3509 7.53169 -3.26303
head 15.2013 1.76869 1.50631
rclavicle 4.53229e-014 -1.74931e-014
rhumerus -33.2306 5.588 -80.9412
rradius 47.8146
rwrist 13.8411
rhand -25.3033 3.84206
rfingers 7.12502
rthumb 1.21868 -26.1342
lclavicle 4.53229e-014 -1.74931e-014
lhumerus -42.5156 -8.22845 96.065
lradius 46.8173
lwrist 15.7204
lhand -33.9934 26.6243
lfingers 7.12502
lthumb -7.17319 56.4828
rfemur -36.8047 -5.138 14.5511
rtibia 46.8943
rfoot 7.98017 21.5555
rtoes 26.3531
lfemur -87.04 39.843 -28.6767
ltibia 131.548
lfoot -10.77 -15.7602
ltoes -21.3969
1220
root -0.866509 16.7097 -1.57932 1.78715 52.6553 -718.173
lowerback 20.2373 -2.07855 -0.350182
upperback 10.332 -2.20186 3.79105
thorax 0.0523266 -1.03509 4.6707
lowerneck -15.2625 1.65069 -8.73676
upperneck 36.3285 7.36385 -3.20663
head 15.2124 1.70791 1.49419
rclavicle 2.22639e-014 -3.18055e-014
rhumerus -33.6242 5.41764 -81.0669
rradius 48.2804
rwrist 13.6019
rhand -25.2342 3.66181
rfingers 7.12502
rthumb 1.28541 -26.3141
lclavicle 2.22639e-014 -3.18055e-014
lhumerus -43.3562 -8.41538 96.2689
lradius 47.8571
lwrist 16.1401
lhand -33.678 25.1455
lfingers 7.12502
lthumb -6.86878 55.0141
rfemur -37.177 -5.45334 14.9481
rtibia 47.5382
rfoot 8.58493 21.7306
rtoes 27.528
lfemur -87.4456 39.9717 -28.5769
ltibia 132.087
lfoot -11.146 -15.724
ltoes -21.507
1221
root -0.860969 16.6551 -1.63264 1.55109 52.3196 -718.366
lowerback 20.2308 -1.96266 -0.822483
upperback 10.2674 -2.14467 3.69083
thorax -0.0034523 -1.02485 4.82229
lowerneck -15.4455 1.5707 -8.82463
upperneck 36.3327 7.18865 -2.95316
head 15.2402 1.64675 1.58882
rclavicle -4.41302e-014 5.24792e-014
rhumerus -33.9422 5.42169 -81.2591
rradius 48.7101
rwrist 13.1344
rhand -25.2249 3.61692
rfingers 7.12502
rthumb 1.29439 -26.3589
lclavicle -4.41302e-014 5.24792e-014
lhumerus -44.0465 -8.65129 96.4033
lradius 48.886
lwrist 16.9091
lhand -33.3282 23.9555
lfingers 7.12502
lthumb -6.53104 53.8348
rfemur -37.6863 -5.76749 15.0995
rtibia 48.1751
rfoot 9.0966 22.0274
rtoes 27.8935
lfemur -88.0649 40.0696 -29.0451
ltibia 132.634
lfoot -11.7134 -14.9554
ltoes -22.5575
1222
root -0.857625 16.6052 -1.68236 0.872273 51.9861 -718.938
lowerback 20.3319 -1.81082 -1.10914
upperback 10.2698 -2.00069 3.66533
thorax -0.0534271 -0.964295 4.93493
lowerneck -15.6406 1.42645 -8.9191
upperneck 36.2954 6.92225 -2.71168
head 15.2557 1.54734 1.66438
rclavicle 3.29983e-014 2.46493e-014
rhumerus -34.2277 5.39019 -81.4232
rradius 49.1069
rwrist 12.4011
rhand -25.7207 3.48965
rfingers 7.12502
rthumb 0.81549 -26.4885
lclavicle 3.29983e-014 2.46493e-014
lhumerus -44.7744 -9.14061 96.6065
lradius 49.9659
lwrist 17.7934
lhand -33.3413 23.1996
lfingers 7.12502
lthumb -6.54366 53.0785
rfemur -38.0014 -5.89461 15.4966
rtibia 48.7914
rfoot 9.24829 22.1523
rtoes 27.9967
lfemur -88.6179 40.3893 -29.3063
ltibia 133.152
lfoot -12.29 -13.9146
ltoes -24.0762
1223
root -0.854692 16.5584 -1.72836 -0.394825 51.6715 -720.045
lowerback 20.5182 -1.71423 -1.09647
upperback 10.3158 -1.86927 3.72156
thorax -0.107119 -0.899375 4.96918
lowerneck -15.6254 1.32481 -8.84034
upperneck 36.1411 6.6906 -2.65076
head 15.1812 1.47329 1.63436
rclavicle 7.15625e-015 3.65764e-014
rhumerus -34.6224 5.36099 -81.6082
rradius 49.5455
rwrist 11.709
rhand -26.2124 3.28544
rfingers 7.12502
rthumb 0.340576 -26.694
lclavicle 7.15625e-015 3.65764e-014
lhumerus -45.8247 -9.6229 96.8611
lradius 51.3713
lwrist 18.3853
lhand -33.5597 23.1216
lfingers 7.12502
lthumb -6.75456 52.9939
rfemur -38.1026 -5.9697 16.2668
rtibia 49.4249
rfoot 9.44564 22.0196
rtoes 28.5673
lfemur -88.9063 41.0263 -28.9671
ltibia 133.667
lfoot -12.5819 -13.4256
ltoes -24.1543
1224
root -0.847048 16.506 -1.77974 -0.972022 51.3542 -720.471
lowerback 20.5206 -1.59841 -1.35486
upperback 10.3636 -1.77048 3.64341
thorax -0.0585755 -0.860579 5.01275
lowerneck -15.7208 1.20353 -8.82097
upperneck 35.9617 6.43325 -2.52449
head 15.116 1.38681 1.63926
rclavicle -3.57812e-014 3.18055e-014
rhumerus -34.9418 5.14657 -81.7555
rradius 49.9744
rwrist 11.2834
rhand -26.2935 3.25088
rfingers 7.12502
rthumb 0.262236 -26.7287
lclavicle -3.57812e-014 3.18055e-014
lhumerus -46.7407 -10.0412 97.1773
lradius 52.7439
lwrist 18.8736
lhand -33.9397 22.983
lfingers 7.12502
lthumb -7.12137 52.8432
rfemur -38.4537 -6.42522 16.6693
rtibia 50.1187
rfoot 10.1258 21.8895
rtoes 29.6899
lfemur -89.1912 41.3047 -29.1263
ltibia 134.151
lfoot -12.6297 -12.7597
ltoes -22.7519
1225
root -0.837824 16.4508 -1.83312 -1.27816 51.0105 -720.592
lowerback 20.498 -1.42817 -1.7601
upperback 10.3959 -1.62986 3.51074
thorax -0.0155603 -0.805469 5.07288
lowerneck -15.8127 1.07028 -8.88574
upperneck 35.7858 6.13617 -2.26547
head 15.0435 1.29076 1.70681
rclavicle 6.48038e-014 6.36111e-015
rhumerus -35.2688 4.82495 -81.8752
rradius 50.3421
rwrist 10.9439
rhand -26.0164 3.5004
rfingers 7.12502
rthumb 0.529919 -26.4787
lclavicle 6.48038e-014 6.36111e-015
lhumerus -47.5443 -10.5291 97.5638
lradius 53.9652
lwrist 19.5326
lhand -34.5947 22.955
lfingers 7.12502
lthumb -7.75355 52.7928
rfemur -38.9353 -7.02144 16.9046
rtibia 50.9095
rfoot 10.6834 21.6585
rtoes 30.5874
lfemur -89.4868 41.4921 -29.4867
ltibia 134.667
lfoot -12.7373 -12.0954
ltoes -21.074
1226
root -0.831465 16.3889 -1.87525 -3.1551 50.5949 -722.238
lowerback 20.7943 -1.35647 -1.4555
upperback 10.4985 -1.47213 3.68854
thorax -0.0721787 -0.718272 5.06784
lowerneck -15.8502 0.975588 -9.06256
upperneck 35.7318 5.93469 -1.97817
head 15.0119 1.22017 1.82169
rclavicle -1.43125e-014 -2.14687e-014
rhumerus -35.6751 4.97553 -82.0434
rradius 50.6221
rwrist 10.4135
rhand -25.8313 3.55263
rfingers 7.12502
rthumb 0.708651 -26.4259
lclavicle -1.43125e-014 -2.14687e-014
lhumerus -48.5268 -10.8982 98.031
lradius 55.2745
lwrist 20.4476
lhand -36.0847 23.4329
lfingers 7.12502
lthumb -9.1915 53.2126
rfemur -38.9742 -7.36374 18.1752
rtibia 51.7934
rfoot 10.6413 21.3656
rtoes 30.796
lfemur -89.8092 42.6475 -28.6159
ltibia 135.394
lfoot -13.0219 -12.1467
ltoes -19.8319
1227
root -0.824086 16.3289 -1.92283 -4.84743 50.1585 -723.691
lowerback 21.0759 -1.26907 -1.15049
upperback 10.6158 -1.2933 3.82359
thorax -0.107613 -0.619479 5.01044
lowerneck -15.9121 0.849753 -9.12991
upperneck 35.6262 5.69603 -1.81443
head 14.9739 1.13341 1.86029
rclavicle 1.59028e-014 -1.27222e-014
rhumerus -36.049 5.03002 -82.1882
rradius 50.9031
rwrist 9.99035
rhand -25.8973 3.29357
rfingers 7.12502
rthumb 0.644896 -26.6852
lclavicle 1.59028e-014 -1.27222e-014
lhumerus -49.4402 -11.3846 98.539
lradius 56.5302
lwrist 21.2868
lhand -37.4252 23.2233
lfingers 7.12502
lthumb -10.4848 52.9419
rfemur -39.0971 -7.81199 19.3329
rtibia 52.7277
rfoot 10.8232 21.4161
rtoes 30.378
lfemur -90.1334 43.5974 -27.978
ltibia 136.048
lfoot -13.0553 -11.6188
ltoes -17.3068
1228
root -0.816987 16.2754 -1.98415 -5.05174 49.7597 -723.751
lowerback 21.0532 -1.07676 -1.42849
upperback 10.6019 -1.10814 3.61655
thorax -0.128144 -0.534144 4.9074
lowerneck -15.8968 0.699687 -8.89433
upperneck 35.389 5.35237 -1.79772
head 14.873 1.02955 1.76542
rclavicle 1.64991e-014 1.35174e-014
rhumerus -36.4705 4.77751 -82.4213
rradius 51.2012
rwrist 9.69453
rhand -26.2184 3.12881
rfingers 7.12502
rthumb 0.334799 -26.8507
lclavicle 1.64991e-014 1.35174e-014
lhumerus -50.4065 -12.1227 98.9474
lradius 57.9228
lwrist 21.9767
lhand -37.9686 23.0433
lfingers 7.12502
lthumb -11.0089 52.7346
rfemur -39.8468 -8.48034 19.5843
rtibia 53.7101
rfoot 11.3174 21.6505
rtoes 29.0291
lfemur -90.5654 43.6885 -28.463
ltibia 136.525
lfoot -12.7694 -10.7794
ltoes -14.4301
1229
root -0.812289 16.2225 -2.04087 -5.34366 49.3175 -723.887
lowerback 21.0413 -0.909895 -1.77766
upperback 10.5719 -0.967707 3.45275
thorax -0.163772 -0.475155 4.90186
lowerneck -15.7723 0.592502 -8.84873
upperneck 35.1317 5.07076 -1.65159
head 14.7255 0.947081 1.76429
rclavicle -2.88238e-014 5.96354e-015
rhumerus -36.8759 4.73891 -82.6718
rradius 51.4318
rwrist 9.47396
rhand -26.3014 3.2013
rfingers 7.12502
rthumb 0.254605 -26.7783
lclavicle -2.88238e-014 5.96354e-015
lhumerus -51.3718 -12.5793 99.3787
lradius 59.3536
lwrist 22.758
lhand -39.247 24.4574
lfingers 7.12502
lthumb -12.2418 54.0791
rfemur -40.5789 -9.02762 19.8867
rtibia 54.6923
rfoot 11.8351 21.795
rtoes 27.6265
lfemur -90.9361 43.9889 -28.7262
ltibia 137.021
lfoot -12.7076 -10.4977
ltoes -12.9746
1230
root -0.809416 16.1671 -2.09303 -5.88858 48.8744 -724.18
lowerback 21.1737 -0.771692 -2.1267
upperback 10.5874 -0.857577 3.38258
thorax -0.215906 -0.432553 5.00713
lowerneck -15.754 0.527354 -9.01008
upperneck 35.0318 4.95201 -1.50112
head 14.6693 0.898231 1.83151
rclavicle -6.87795e-014 4.01545e-014
rhumerus -37.1703 4.87921 -82.8839
rradius 51.5935
rwrist 9.29861
rhand -26.1378 3.22416
rfingers 7.12502
rthumb 0.412667 -26.7552
lclavicle -6.87795e-014 4.01545e-014
lhumerus -52.1783 -12.8247 99.83
lradius 60.6127
lwrist 23.3746
lhand -39.9583 25.2488
lfingers 7.12502
lthumb -12.9276 54.8284
rfemur -41.1318 -9.45986 20.2907
rtibia 55.642
rfoot 12.4194 21.8637
rtoes 26.1662
lfemur -91.1908 44.4631 -28.8248
ltibia 137.49
lfoot -12.8343 -10.3192
ltoes -12.5087
